<svg width="18" height="18" viewBox="0 0 18 18" fill="none" xmlns="http://www.w3.org/2000/svg">
<path d="M15.4016 9.60893H14.0096C14.1515 9.99741 14.229 10.4166 14.229 10.8536V16.1147C14.229 16.2969 14.1973 16.4718 14.1396 16.6344H16.4409C17.3006 16.6344 18 15.935 18 15.0754V12.2073C18 10.7746 16.8344 9.60893 15.4016 9.60893Z" fill="#9EA5B8"/>
<path d="M3.77104 10.8536C3.77104 10.4166 3.84856 9.99744 3.99045 9.60896H2.5984C1.16564 9.60896 0 10.7746 0 12.2074V15.0755C0 15.9351 0.699365 16.6345 1.55904 16.6345H3.86044C3.80275 16.4718 3.77104 16.297 3.77104 16.1148V10.8536Z" fill="#9EA5B8"/>
<path d="M10.5912 8.25523H7.40882C5.97607 8.25523 4.81042 9.42088 4.81042 10.8536V16.1148C4.81042 16.4018 5.04309 16.6345 5.3301 16.6345H12.67C12.957 16.6345 13.1896 16.4018 13.1896 16.1148V10.8536C13.1896 9.42088 12.024 8.25523 10.5912 8.25523Z" fill="#9EA5B8"/>
<path d="M9.00002 1.36548C7.27694 1.36548 5.87512 2.7673 5.87512 4.49042C5.87512 5.65919 6.5202 6.67995 7.47287 7.21588C7.92473 7.47006 8.44568 7.61532 9.00002 7.61532C9.55436 7.61532 10.0753 7.47006 10.5272 7.21588C11.4799 6.67995 12.1249 5.65915 12.1249 4.49042C12.1249 2.76734 10.7231 1.36548 9.00002 1.36548Z" fill="#9EA5B8"/>
<path d="M3.51274 4.27814C2.22408 4.27814 1.17572 5.3265 1.17572 6.61515C1.17572 7.90381 2.22408 8.95217 3.51274 8.95217C3.83962 8.95217 4.15089 8.88446 4.43366 8.76275C4.92254 8.55227 5.32564 8.17968 5.57508 7.71298C5.75015 7.38543 5.84975 7.01175 5.84975 6.61515C5.84975 5.32653 4.80139 4.27814 3.51274 4.27814Z" fill="#9EA5B8"/>
<path d="M14.4873 4.27814C13.1986 4.27814 12.1503 5.3265 12.1503 6.61515C12.1503 7.01179 12.2499 7.38546 12.4249 7.71298C12.6744 8.17972 13.0775 8.5523 13.5664 8.76275C13.8491 8.88446 14.1604 8.95217 14.4873 8.95217C15.7759 8.95217 16.8243 7.90381 16.8243 6.61515C16.8243 5.3265 15.7759 4.27814 14.4873 4.27814Z" fill="#9EA5B8"/>
</svg>
