<svg width="18" height="18" viewBox="0 0 18 18" fill="none" xmlns="http://www.w3.org/2000/svg">
<path d="M15.4018 9.60893H14.0098C14.1517 9.99741 14.2292 10.4166 14.2292 10.8536V16.1147C14.2292 16.2969 14.1975 16.4718 14.1398 16.6344H16.4411C17.3008 16.6344 18.0002 15.935 18.0002 15.0754V12.2073C18.0002 10.7746 16.8346 9.60893 15.4018 9.60893Z" fill="white"/>
<path d="M3.77104 10.8536C3.77104 10.4166 3.84856 9.99744 3.99045 9.60896H2.5984C1.16564 9.60896 0 10.7746 0 12.2074V15.0755C0 15.9351 0.699365 16.6345 1.55904 16.6345H3.86044C3.80275 16.4718 3.77104 16.297 3.77104 16.1148V10.8536Z" fill="white"/>
<path d="M10.5914 8.25523H7.40895C5.97619 8.25523 4.81055 9.42088 4.81055 10.8536V16.1148C4.81055 16.4018 5.04321 16.6345 5.33023 16.6345H12.6701C12.9571 16.6345 13.1898 16.4018 13.1898 16.1148V10.8536C13.1898 9.42088 12.0241 8.25523 10.5914 8.25523Z" fill="white"/>
<path d="M8.9999 1.36548C7.27682 1.36548 5.875 2.7673 5.875 4.49042C5.875 5.65919 6.52008 6.67995 7.47275 7.21588C7.92461 7.47006 8.44555 7.61532 8.9999 7.61532C9.55424 7.61532 10.0752 7.47006 10.527 7.21588C11.4797 6.67995 12.1248 5.65915 12.1248 4.49042C12.1248 2.76734 10.723 1.36548 8.9999 1.36548Z" fill="white"/>
<path d="M3.5128 4.27814C2.22414 4.27814 1.17578 5.3265 1.17578 6.61515C1.17578 7.90381 2.22414 8.95217 3.5128 8.95217C3.83968 8.95217 4.15095 8.88446 4.43372 8.76275C4.9226 8.55227 5.3257 8.17968 5.57514 7.71298C5.75022 7.38543 5.84981 7.01175 5.84981 6.61515C5.84981 5.32653 4.80145 4.27814 3.5128 4.27814Z" fill="white"/>
<path d="M14.4874 4.27814C13.1988 4.27814 12.1504 5.3265 12.1504 6.61515C12.1504 7.01179 12.25 7.38546 12.4251 7.71298C12.6745 8.17972 13.0776 8.5523 13.5665 8.76275C13.8492 8.88446 14.1605 8.95217 14.4874 8.95217C15.7761 8.95217 16.8244 7.90381 16.8244 6.61515C16.8244 5.3265 15.7761 4.27814 14.4874 4.27814Z" fill="white"/>
</svg>
