<svg width="22" height="23" viewBox="0 0 22 23" fill="none" xmlns="http://www.w3.org/2000/svg">
<path d="M21.9306 9.73352C21.8838 9.62166 21.8169 9.51991 21.7317 9.43465L18.9824 6.68541C18.624 6.32789 18.0446 6.32789 17.6862 6.68541C17.3278 7.04383 17.3278 7.62411 17.6862 7.98163L18.8715 9.16694H13.7507C13.2438 9.16694 12.834 9.57762 12.834 10.0836C12.834 10.5897 13.2438 11.0003 13.7507 11.0003H18.8715L17.6861 12.1857C17.3277 12.5441 17.3277 13.1244 17.6861 13.4819C17.8649 13.6615 18.0996 13.7505 18.3343 13.7505C18.569 13.7505 18.8037 13.6616 18.9824 13.4819L21.7317 10.7326C21.8169 10.6483 21.8838 10.5465 21.9306 10.4338C22.0231 10.2102 22.0231 9.95718 21.9306 9.73352Z" fill="#FF3D3D"/>
<path d="M15.5841 12.834C15.0772 12.834 14.6674 13.2447 14.6674 13.7507V18.3343H11.0006V3.66685C11.0006 3.26258 10.7347 2.90506 10.347 2.78865L7.16319 1.83345H14.6674V6.41704C14.6674 6.92307 15.0772 7.33374 15.5841 7.33374C16.0911 7.33374 16.5008 6.92307 16.5008 6.41704V0.916744C16.5008 0.410674 16.0911 0 15.5841 0H0.916702C0.8837 0 0.854351 0.0137507 0.822294 0.0174033C0.779194 0.0220012 0.73979 0.0293063 0.698538 0.0394045C0.602282 0.0641558 0.51518 0.101755 0.433621 0.153063C0.413468 0.165911 0.388716 0.166814 0.369465 0.181467C0.362074 0.18701 0.359324 0.197108 0.351976 0.202609C0.252068 0.281417 0.168661 0.377673 0.108158 0.492276C0.0953098 0.517028 0.0925597 0.543627 0.0825044 0.569281C0.0531552 0.638937 0.0210988 0.706788 0.0100982 0.783792C0.0055003 0.811294 0.0137507 0.836947 0.0128483 0.863546C0.011946 0.881895 0 0.898396 0 0.916702V19.251C0 19.6883 0.308919 20.0642 0.73704 20.1494L9.90418 21.9829C9.96379 21.9957 10.0243 22.0012 10.0838 22.0012C10.2938 22.0012 10.5 21.9288 10.665 21.7931C10.8768 21.619 11.0005 21.3595 11.0005 21.0845V20.1678H15.5841C16.0911 20.1678 16.5008 19.7571 16.5008 19.2511V13.7507C16.5008 13.2447 16.0911 12.834 15.5841 12.834Z" fill="#FF3D3D"/>
</svg>
