<svg width="141" height="56" viewBox="0 0 141 56" fill="none" xmlns="http://www.w3.org/2000/svg">
<g clip-path="url(#clip0)">
<path d="M37.5612 36.4611C32.0723 33.5712 26.1841 32.0328 20.3202 31.7318L12.5563 31.7323C10.5037 31.7311 8.84483 30.0628 8.84555 28.0206L8.84471 21.1881C8.84514 19.142 10.5103 17.4769 12.5564 17.4773L18.9889 17.4769C19.3613 17.4769 19.6634 17.7788 19.6634 18.1514L19.6634 26.9056C19.6634 27.2846 19.9759 27.5908 20.3578 27.5798C20.7272 27.5692 21.0123 27.2472 21.0122 26.8777L21.0123 18.0602C21.0123 17.7099 21.2804 17.4176 21.6295 17.3887C27.2063 16.9269 32.6061 15.3554 37.5617 12.7478C39.4398 11.7587 41.7 13.1191 41.7003 15.2463L41.6995 33.9624C41.7014 36.0859 39.4426 37.4519 37.5612 36.4611ZM44.2456 27.2849C45.5369 25.741 45.5249 23.4377 44.2386 21.9091C43.8342 21.4286 43.0491 21.7172 43.049 22.3451C43.0488 23.8401 43.0488 25.3402 43.049 26.8565C43.0492 27.4898 43.8392 27.7708 44.2456 27.2849ZM18.8295 40.1681L18.8358 33.756C18.8361 33.3834 18.5338 33.081 18.1611 33.0809C16.1585 33.0803 16.0822 33.0812 13.4106 33.0809C13.0381 33.0809 12.7356 33.3829 12.7356 33.7555L12.7359 40.1672C12.7363 40.9885 13.1831 41.6929 13.835 42.0693C14.4673 42.4343 14.8326 42.36 16.6372 42.3602C17.8462 42.3603 18.8299 41.3765 18.8295 40.1681ZM51.0745 25.306C51.447 25.306 51.749 25.004 51.7489 24.6315C51.749 24.2592 51.4472 23.9571 51.0745 23.9571L49.0594 23.9571C48.3698 23.9571 48.1292 24.8735 48.7227 25.2162C48.9305 25.336 48.8923 25.306 51.0745 25.306ZM47.451 19.1783L48.6136 18.0159C48.8771 17.7525 48.877 17.3254 48.6137 17.062C48.35 16.7986 47.9232 16.7986 47.6598 17.062L46.4972 18.2245C46.1842 18.5375 46.2524 19.0638 46.6371 19.2859C46.895 19.4347 47.2304 19.3989 47.451 19.1783ZM48.6137 32.2011C48.8771 31.9377 48.877 31.5106 48.6136 31.2472L47.4511 30.0847C47.1876 29.8215 46.7606 29.8214 46.4972 30.0847C46.2338 30.348 46.2339 30.7751 46.4972 31.0385C47.7687 32.31 47.6944 32.2478 47.7997 32.3086C48.0576 32.4575 48.3931 32.4216 48.6137 32.2011Z" fill="#31A05F"/>
</g>
<path d="M62.2142 24.7459C62.2142 29.7849 65.8789 33.7149 71.0626 33.7149C76.2464 33.7149 79.9111 29.7849 79.9111 24.7459C79.9111 19.8515 76.2464 16.018 71.0626 16.018C65.8789 16.018 62.2142 19.8515 62.2142 24.7459ZM65.4208 24.7459C65.4208 21.4187 67.7836 18.863 71.0626 18.863C74.3416 18.863 76.7044 21.4187 76.7044 24.7459C76.7044 28.2178 74.3416 30.8699 71.0626 30.8699C67.7836 30.8699 65.4208 28.2178 65.4208 24.7459Z" fill="#31A05F"/>
<path d="M82.9117 27.2775C82.9117 31.111 85.6603 33.7149 89.8072 33.7149C93.9301 33.7149 96.6787 31.111 96.6787 27.2775V17.3199C96.6787 16.669 96.3411 16.3073 95.6902 16.3073H94.5811C93.9301 16.3073 93.5926 16.669 93.5926 17.3199V27.2534C93.5926 29.5679 92.0736 30.8699 89.7831 30.8699C87.4927 30.8699 85.9978 29.5679 85.9978 27.2534V17.3199C85.9978 16.669 85.6603 16.3073 84.9852 16.3073H83.9002C83.2493 16.3073 82.9117 16.669 82.9117 17.3199V27.2775Z" fill="#31A05F"/>
<path d="M100.675 32.413C100.675 33.088 101.012 33.4256 101.663 33.4256H102.773C103.424 33.4256 103.761 33.088 103.761 32.413V25.9514H106.003L109.789 32.7264C110.054 33.2086 110.416 33.4256 110.97 33.4256H112.296C113.092 33.4256 113.405 32.9193 112.995 32.2201L108.535 24.5048V24.4566L112.682 17.5128C113.068 16.8377 112.778 16.3073 111.983 16.3073H110.801C110.247 16.3073 109.885 16.5243 109.62 17.0065L106.003 23.2752H103.761V17.3199C103.761 16.669 103.424 16.3073 102.773 16.3073H101.663C101.012 16.3073 100.675 16.669 100.675 17.3199V32.413Z" fill="#31A05F"/>
<path d="M115.115 32.413C115.115 33.088 115.573 33.4256 116.2 33.4256H125.603C126.278 33.4256 126.616 33.088 126.616 32.413V31.7379C126.616 31.0869 126.278 30.7494 125.603 30.7494H118.539C118.684 27.5186 126.351 26.5783 126.351 21.0811C126.351 17.8504 123.771 16.018 120.781 16.018C117.984 16.018 116.393 17.6093 115.646 18.5978C115.284 19.1041 115.405 19.5622 115.911 19.9479L116.562 20.4543C117.044 20.8641 117.526 20.6954 117.984 20.2373C118.418 19.7068 119.286 18.9594 120.516 18.9594C121.963 18.9594 123.12 19.8515 123.12 21.3463C123.12 24.7459 115.115 25.7344 115.115 31.9066V32.413Z" fill="#31A05F"/>
<path d="M129.301 32.0513C130.145 32.6782 131.857 33.7149 134.244 33.7149C138.078 33.7149 140.272 31.0146 140.272 28.0972C140.272 25.1317 137.981 23.4439 135.594 23.1064L139.331 18.7907C139.669 18.429 139.789 18.0673 139.789 17.561V17.2958C139.789 16.6448 139.452 16.3073 138.777 16.3073H130.338C129.687 16.3073 129.35 16.669 129.35 17.3199V17.995C129.35 18.646 129.687 18.9835 130.338 18.9835H134.461C135.45 18.9835 135.98 18.9112 135.98 18.9112V18.9594C135.98 18.9594 135.401 19.4657 134.75 20.2614L132.122 23.3716C131.761 23.7815 131.688 24.2396 131.905 24.6736L132.002 24.8664C132.243 25.3728 132.556 25.5656 133.111 25.5656H133.472C135.474 25.5656 137.137 26.4095 137.137 28.2178C137.137 29.6885 135.835 30.7735 134.051 30.7735C132.677 30.7735 131.592 30.1225 130.965 29.6885C130.41 29.3268 129.952 29.351 129.591 29.9055L129.108 30.6529C128.747 31.1592 128.795 31.6655 129.301 32.0513Z" fill="#31A05F"/>
<defs>
<clipPath id="clip0">
<rect width="40.4666" height="40.4666" fill="white" transform="translate(20.5049) rotate(30)"/>
</clipPath>
</defs>
</svg>
