<svg width="20" height="20" viewBox="0 0 20 20" fill="none" xmlns="http://www.w3.org/2000/svg">
<path d="M17.0833 10.8333H9.16668V2.91668C9.16668 2.68668 8.98 2.5 8.75 2.5C3.925 2.5 0 6.425 0 11.25C0 16.075 3.925 20 8.75 20C13.575 20 17.5 16.075 17.5 11.25C17.5 11.02 17.3133 10.8333 17.0833 10.8333Z" fill="#9EA5B8"/>
<path d="M11.2499 0C11.0199 0 10.8333 0.18668 10.8333 0.41668V8.75C10.8333 8.98 11.0199 9.16668 11.2499 9.16668H19.5833C19.8133 9.16668 19.9999 8.98 19.9999 8.75C19.9999 3.925 16.0749 0 11.2499 0Z" fill="#9EA5B8"/>
</svg>
