<svg width="20" height="21" viewBox="0 0 20 21" fill="none" xmlns="http://www.w3.org/2000/svg">
<path d="M20 12.9983V8.99829L17.6 8.39829C17.5 8.09829 17.4 7.79829 17.2 7.49829L18.5 5.29829L15.7 2.49829L13.5 3.79829C13.2 3.69829 12.9 3.49829 12.6 3.39829L12 0.998291H8L7.4 3.39829C7.1 3.59829 6.8 3.69829 6.5 3.79829L4.3 2.49829L1.5 5.29829L2.8 7.49829C2.7 7.79829 2.5 8.09829 2.4 8.39829L0 8.99829V12.9983L2.4 13.5983C2.5 13.8983 2.6 14.1983 2.8 14.4983L1.5 16.6983L4.3 19.4983L6.5 18.1983C6.8 18.2983 7.1 18.4983 7.4 18.5983L8 20.9983H12L12.6 18.5983C12.9 18.4983 13.2 18.3983 13.5 18.1983L15.7 19.4983L18.5 16.6983L17.2 14.4983C17.3 14.1983 17.5 13.8983 17.6 13.5983L20 12.9983ZM10 13.9983C8.3 13.9983 7 12.6983 7 10.9983C7 9.29829 8.3 7.99829 10 7.99829C11.7 7.99829 13 9.29829 13 10.9983C13 12.6983 11.7 13.9983 10 13.9983Z" fill="#9EA5B8"/>
</svg>
