<svg width="22" height="22" viewBox="0 0 22 22" fill="none" xmlns="http://www.w3.org/2000/svg">
<path d="M11 3.16892C10.6205 3.16892 10.3125 2.86092 10.3125 2.48142V0.687501C10.3125 0.308 10.6205 0 11 0C11.3795 0 11.6875 0.308 11.6875 0.687501V2.48142C11.6875 2.86092 11.3795 3.16892 11 3.16892Z" fill="white"/>
<path d="M17.0232 5.66409C16.8472 5.66409 16.6712 5.59718 16.5374 5.46243C16.2688 5.19384 16.2688 4.75843 16.5374 4.48984L17.806 3.22117C18.0746 2.95259 18.51 2.95259 18.7786 3.22117C19.0472 3.48976 19.0472 3.92518 18.7786 4.19376L17.51 5.46243C17.3752 5.59626 17.1992 5.66409 17.0232 5.66409Z" fill="white"/>
<path d="M21.3125 11.6875H19.5186C19.1391 11.6875 18.8311 11.3795 18.8311 11C18.8311 10.6205 19.1391 10.3125 19.5186 10.3125H21.3125C21.692 10.3125 22 10.6205 22 11C22 11.3795 21.692 11.6875 21.3125 11.6875Z" fill="white"/>
<path d="M18.2919 18.9796C18.1159 18.9796 17.9399 18.9127 17.806 18.7779L16.5374 17.5092C16.2688 17.2407 16.2688 16.8052 16.5374 16.5367C16.806 16.2681 17.2414 16.2681 17.51 16.5367L18.7786 17.8053C19.0472 18.0739 19.0472 18.5093 18.7786 18.7779C18.6439 18.9127 18.4679 18.9796 18.2919 18.9796Z" fill="white"/>
<path d="M3.70778 18.9796C3.53178 18.9796 3.35578 18.9127 3.22195 18.7779C2.95336 18.5093 2.95336 18.0739 3.22195 17.8053L4.49061 16.5367C4.7592 16.2681 5.19461 16.2681 5.4632 16.5367C5.73178 16.8052 5.73178 17.2407 5.4632 17.5092L4.19453 18.7779C4.05978 18.9127 3.88378 18.9796 3.70778 18.9796Z" fill="white"/>
<path d="M2.48142 11.6875H0.687501C0.308 11.6875 0 11.3795 0 11C0 10.6205 0.308 10.3125 0.687501 10.3125H2.48142C2.86092 10.3125 3.16892 10.6205 3.16892 11C3.16892 11.3795 2.86092 11.6875 2.48142 11.6875Z" fill="white"/>
<path d="M4.97645 5.66409C4.80045 5.66409 4.62445 5.59718 4.49061 5.46243L3.22195 4.19376C2.95336 3.92518 2.95336 3.48976 3.22195 3.22117C3.49053 2.95259 3.92595 2.95259 4.19453 3.22117L5.4632 4.48984C5.73178 4.75843 5.73178 5.19384 5.4632 5.46243C5.32753 5.59626 5.15245 5.66409 4.97645 5.66409Z" fill="white"/>
<path d="M13.75 19.25V20.3958C13.75 21.2759 13.0258 22 12.1458 22H9.85417C9.08417 22 8.25 21.4134 8.25 20.13V19.25H13.75Z" fill="white"/>
<path d="M15.0424 6.01332C13.5391 4.79416 11.5591 4.31749 9.62488 4.72999C7.19571 5.23416 5.22488 7.21416 4.72071 9.64333C4.20738 12.1367 5.14238 14.6117 7.14071 16.1242C7.68155 16.5275 8.05738 17.1508 8.18571 17.875V17.8842C8.20405 17.875 8.23155 17.875 8.24988 17.875H13.7499C13.7682 17.875 13.7774 17.875 13.7957 17.8842V17.875C13.9241 17.1783 14.3366 16.5367 14.9691 16.0417C16.5182 14.8133 17.4166 12.98 17.4166 11C17.4166 9.05666 16.5549 7.24166 15.0424 6.01332ZM14.4374 11.4583C14.0616 11.4583 13.7499 11.1467 13.7499 10.7708C13.7499 9.3775 12.6224 8.24999 11.2291 8.24999C10.8532 8.24999 10.5415 7.93833 10.5415 7.56249C10.5415 7.18666 10.8532 6.87499 11.2291 6.87499C13.3741 6.87499 15.1249 8.62583 15.1249 10.7708C15.1249 11.1467 14.8132 11.4583 14.4374 11.4583Z" fill="white"/>
<path d="M8.18555 17.875H8.24971C8.23138 17.875 8.20388 17.875 8.18555 17.8842V17.875Z" fill="white"/>
<path d="M13.7958 17.875V17.8842C13.7775 17.875 13.7683 17.875 13.75 17.875H13.7958Z" fill="white"/>
</svg>
