<svg width="22" height="22" viewBox="0 0 22 22" fill="none" xmlns="http://www.w3.org/2000/svg">
<path d="M11 3.16892C10.6205 3.16892 10.3125 2.86092 10.3125 2.48142V0.687501C10.3125 0.308 10.6205 0 11 0C11.3795 0 11.6875 0.308 11.6875 0.687501V2.48142C11.6875 2.86092 11.3795 3.16892 11 3.16892Z" fill="#9EA5B8"/>
<path d="M17.0235 5.66409C16.8475 5.66409 16.6715 5.59718 16.5376 5.46243C16.269 5.19384 16.269 4.75843 16.5376 4.48984L17.8063 3.22117C18.0749 2.95259 18.5103 2.95259 18.7789 3.22117C19.0475 3.48976 19.0475 3.92518 18.7789 4.19376L17.5102 5.46243C17.3755 5.59626 17.1995 5.66409 17.0235 5.66409Z" fill="#9EA5B8"/>
<path d="M21.3125 11.6875H19.5186C19.1391 11.6875 18.8311 11.3795 18.8311 11C18.8311 10.6205 19.1391 10.3125 19.5186 10.3125H21.3125C21.692 10.3125 22 10.6205 22 11C22 11.3795 21.692 11.6875 21.3125 11.6875Z" fill="#9EA5B8"/>
<path d="M18.2921 18.9796C18.1161 18.9796 17.9401 18.9127 17.8063 18.7779L16.5376 17.5092C16.269 17.2407 16.269 16.8052 16.5376 16.5367C16.8062 16.2681 17.2416 16.2681 17.5102 16.5367L18.7789 17.8053C19.0475 18.0739 19.0475 18.5093 18.7789 18.7779C18.6441 18.9127 18.4681 18.9796 18.2921 18.9796Z" fill="#9EA5B8"/>
<path d="M3.70808 18.9796C3.53208 18.9796 3.35608 18.9127 3.22225 18.7779C2.95367 18.5093 2.95367 18.0739 3.22225 17.8053L4.49092 16.5367C4.7595 16.2681 5.19492 16.2681 5.4635 16.5367C5.73209 16.8052 5.73209 17.2407 5.4635 17.5092L4.19483 18.7779C4.06008 18.9127 3.88408 18.9796 3.70808 18.9796Z" fill="#9EA5B8"/>
<path d="M2.48142 11.6875H0.687501C0.308 11.6875 0 11.3795 0 11C0 10.6205 0.308 10.3125 0.687501 10.3125H2.48142C2.86092 10.3125 3.16892 10.6205 3.16892 11C3.16892 11.3795 2.86092 11.6875 2.48142 11.6875Z" fill="#9EA5B8"/>
<path d="M4.97675 5.66409C4.80075 5.66409 4.62475 5.59718 4.49092 5.46243L3.22225 4.19376C2.95367 3.92518 2.95367 3.48976 3.22225 3.22117C3.49083 2.95259 3.92625 2.95259 4.19483 3.22117L5.4635 4.48984C5.73209 4.75843 5.73209 5.19384 5.4635 5.46243C5.32784 5.59626 5.15275 5.66409 4.97675 5.66409Z" fill="#9EA5B8"/>
<path d="M13.75 19.25V20.3958C13.75 21.2759 13.0258 22 12.1458 22H9.85417C9.08417 22 8.25 21.4134 8.25 20.13V19.25H13.75Z" fill="#9EA5B8"/>
<path d="M15.0423 6.01332C13.539 4.79416 11.559 4.31749 9.62482 4.72999C7.19565 5.23416 5.22482 7.21416 4.72065 9.64333C4.20731 12.1367 5.14232 14.6117 7.14065 16.1242C7.68148 16.5275 8.05732 17.1508 8.18565 17.875V17.8842C8.20399 17.875 8.23149 17.875 8.24982 17.875H13.7498C13.7682 17.875 13.7773 17.875 13.7957 17.8842V17.875C13.924 17.1783 14.3365 16.5367 14.969 16.0417C16.5182 14.8133 17.4165 12.98 17.4165 11C17.4165 9.05666 16.5548 7.24166 15.0423 6.01332ZM14.4373 11.4583C14.0615 11.4583 13.7498 11.1467 13.7498 10.7708C13.7498 9.3775 12.6223 8.24999 11.229 8.24999C10.8532 8.24999 10.5415 7.93833 10.5415 7.56249C10.5415 7.18666 10.8532 6.87499 11.229 6.87499C13.374 6.87499 15.1248 8.62583 15.1248 10.7708C15.1248 11.1467 14.8132 11.4583 14.4373 11.4583Z" fill="#9EA5B8"/>
<path d="M8.18567 17.875H8.24983C8.2315 17.875 8.204 17.875 8.18567 17.8842V17.875Z" fill="#9EA5B8"/>
<path d="M13.7958 17.875V17.8842C13.7775 17.875 13.7683 17.875 13.75 17.875H13.7958Z" fill="#9EA5B8"/>
</svg>
