<svg width="18" height="18" viewBox="0 0 18 18" fill="none" xmlns="http://www.w3.org/2000/svg">
<g clip-path="url(#clip0)">
<path d="M8.87161 8.67069C10.0628 8.67069 11.0943 8.24345 11.9371 7.40053C12.7799 6.55774 13.2071 5.52654 13.2071 4.33521C13.2071 3.14429 12.7799 2.11295 11.9369 1.26988C11.094 0.427231 10.0627 0 8.87161 0C7.68028 0 6.64908 0.427231 5.80629 1.27002C4.9635 2.11281 4.53613 3.14415 4.53613 4.33521C4.53613 5.52654 4.9635 6.55788 5.80643 7.40067C6.64935 8.24332 7.68069 8.67069 8.87161 8.67069Z" fill="white"/>
<path d="M16.4577 13.8411C16.4333 13.4904 16.3842 13.1078 16.3118 12.7038C16.2388 12.2967 16.1447 11.9119 16.0321 11.5602C15.9158 11.1967 15.7576 10.8377 15.562 10.4937C15.359 10.1367 15.1206 9.82576 14.8531 9.56992C14.5734 9.30226 14.2309 9.08707 13.8348 8.9301C13.4401 8.77396 13.0027 8.69485 12.5349 8.69485C12.3511 8.69485 12.1734 8.77025 11.8302 8.99368C11.619 9.13142 11.3719 9.29073 11.0962 9.46692C10.8604 9.61716 10.541 9.75792 10.1464 9.88536C9.76149 10.0099 9.37065 10.0731 8.98489 10.0731C8.59914 10.0731 8.20844 10.0099 7.82309 9.88536C7.42896 9.75806 7.10953 9.61729 6.87401 9.46706C6.60086 9.29251 6.35367 9.13321 6.1393 8.99355C5.79652 8.77011 5.61868 8.69472 5.43494 8.69472C4.96692 8.69472 4.52966 8.77396 4.13512 8.93024C3.73933 9.08693 3.3967 9.30212 3.11668 9.57005C2.8493 9.82603 2.61076 10.1368 2.40807 10.4937C2.21265 10.8377 2.05444 11.1966 1.93799 11.5604C1.82552 11.9121 1.73145 12.2967 1.65839 12.7038C1.58601 13.1072 1.53685 13.49 1.51254 13.8415C1.48865 14.186 1.47656 14.5434 1.47656 14.9045C1.47656 15.8441 1.77525 16.6047 2.36426 17.1657C2.94598 17.7193 3.71571 18.0001 4.65175 18.0001H13.3189C14.2549 18.0001 15.0244 17.7194 15.6062 17.1657C16.1954 16.6052 16.494 15.8443 16.494 14.9043C16.4939 14.5416 16.4817 14.1839 16.4577 13.8411Z" fill="white"/>
</g>
<defs>
<clipPath id="clip0">
<rect width="18" height="18.0001" fill="white"/>
</clipPath>
</defs>
</svg>
